# xmcd
#
# Track frame offsets:
#	150
#	14663
#	27755
#	43052
#	61268
#	67366
#	79290
#	96216
#	108552
#	126239
#	139711
#	151101
#	168383
#	181441
#	191941
#	208868
#
# Disc length: 3098 seconds
#
# Revision: 1
# Processed by: cddbd v1.5.2PL0 Copyright (c) Steve Scherf et al.
# Submitted via: EZCDAudioConverter 6.0.0.1
#
DISCID=ee0c1810
DTITLE=Eldo - 27
DYEAR=2007
DGENRE=Hip-Hop/Rap
TTITLE0=Co Słychać
TTITLE1=27
TTITLE2=Szyk
TTITLE3=Noc Rap Samochód
TTITLE4=Noc
TTITLE5=Zamieć Prawde Pod Dywan
TTITLE6=Krew Pot Sperma I Łzy
TTITLE7=Dzieciństwo
TTITLE8=I'm in Love
TTITLE9=Styl Flow Oryginalność
TTITLE10=Dany Drumz Gra Funk
TTITLE11=Ferajny
TTITLE12=Spacer
TTITLE13=Są Rzeczy Których Chciałbym Nie Pamiętać
TTITLE14=Więcej
TTITLE15=Koniec
EXTD=
EXTT0=
EXTT1=
EXTT2=
EXTT3=
EXTT4=
EXTT5=
EXTT6=
EXTT7=
EXTT8=
EXTT9=
EXTT10=
EXTT11=
EXTT12=
EXTT13=
EXTT14=
EXTT15=
PLAYORDER=
